# xmcd
#
# Track frame offsets: 
#        150
#        19837
#        40660
#        59764
#        77422
#        92487
#        113647
#        134105
#        148905
#        164152
#        179247
#        197500
#
# Disc length: 2927 seconds
#
# Revision: 0
# Processed by: cddbd v1.5.2PL0 Copyright (c) Steve Scherf et al.
# Submitted via: ExactAudioCopy v0.99pb4
#
DISCID=b00b6d0c
DTITLE=Danny Angel and Bo Galigher - Mind Reader
DYEAR=1999
DGENRE=Blues
TTITLE0=Love's Hell
TTITLE1=Someone Who Will
TTITLE2=Born to Sing the Blues
TTITLE3=Mindreader
TTITLE4=Everywhere There's a Trace
TTITLE5=Then You'll Know the Way I Feel
TTITLE6=I'll Be Your Lighthouse
TTITLE7=I Don't Need This Rain
TTITLE8=My Money's Done Spent
TTITLE9=New Lover
TTITLE10=No Lady Luck
TTITLE11=When the Blues Man Gets the Blues
EXTD=
EXTT0=
EXTT1=
EXTT2=
EXTT3=
EXTT4=
EXTT5=
EXTT6=
EXTT7=
EXTT8=
EXTT9=
EXTT10=
EXTT11=
PLAYORDER=
